/videos/6f6f4111-ee4f-4f8f-4c92-4daf4252bdee/hls1/main/0.ts

{"Protocol":0,"Id":"6f6f4111ee4f4f8f4c924daf4252bdee","Path":"/data/tvshows/Top Gear/Season 33/Top Gear - S33E02 - Episode 2 WEBRip-720p.mkv","EncoderPath":null,"EncoderProtocol":null,"Type":0,"Container":"mkv,webm","Size":910013184,"Name":"Top Gear - S33E02 - Episode 2 WEBRip-720p","IsRemote":false,"ETag":"4a5ab8fc03caece7d1b4cb231047bca3","RunTimeTicks":35680829440,"ReadAtNativeFramerate":false,"IgnoreDts":false,"IgnoreIndex":false,"GenPtsInput":false,"SupportsTranscoding":true,"SupportsDirectStream":true,"SupportsDirectPlay":true,"IsInfiniteStream":false,"RequiresOpening":false,"OpenToken":null,"RequiresClosing":false,"LiveStreamId":null,"BufferMs":null,"RequiresLooping":false,"SupportsProbing":true,"VideoType":0,"IsoType":null,"Video3DFormat":null,"MediaStreams":[{"Codec":"h264","CodecTag":null,"Language":"eng","ColorRange":null,"ColorSpace":"bt709","ColorTransfer":"bt709","ColorPrimaries":"bt709","DvVersionMajor":null,"DvVersionMinor":null,"DvProfile":null,"DvLevel":null,"RpuPresentFlag":null,"ElPresentFlag":null,"BlPresentFlag":null,"DvBlSignalCompatibilityId":null,"Comment":null,"TimeBase":"1/1000","CodecTimeBase":null,"Title":"GalaxyTV - small excellence!","VideoRange":"SDR","VideoRangeType":"SDR","VideoDoViTitle":null,"LocalizedUndefined":null,"LocalizedDefault":null,"LocalizedForced":null,"LocalizedExternal":null,"DisplayTitle":"GalaxyTV - small excellence! - 720p - H264 - SDR","NalLengthSize":"4","IsInterlaced":false,"IsAVC":true,"ChannelLayout":null,"BitRate":2040340,"BitDepth":8,"RefFrames":1,"PacketLength":null,"Channels":null,"SampleRate":null,"IsDefault":true,"IsForced":false,"Height":720,"Width":1280,"AverageFrameRate":50,"RealFrameRate":50,"Profile":"High","Type":1,"AspectRatio":"16:9","Index":0,"Score":null,"IsExternal":false,"DeliveryMethod":null,"DeliveryUrl":null,"IsExternalUrl":null,"IsTextSubtitleStream":false,"SupportsExternalStream":false,"Path":null,"PixelFormat":"yuv420p","Level":32,"IsAnamorphic":null},{"Codec":"aac","CodecTag":null,"Language":"eng","ColorRange":null,"ColorSpace":null,"ColorTransfer":null,"ColorPrimaries":null,"DvVersionMajor":null,"DvVersionMinor":null,"DvProfile":null,"DvLevel":null,"RpuPresentFlag":null,"ElPresentFlag":null,"BlPresentFlag":null,"DvBlSignalCompatibilityId":null,"Comment":null,"TimeBase":"1/1000","CodecTimeBase":null,"Title":"GalaxyTV - small excellence!","VideoRange":null,"VideoRangeType":null,"VideoDoViTitle":null,"LocalizedUndefined":null,"LocalizedDefault":null,"LocalizedForced":null,"LocalizedExternal":null,"DisplayTitle":"GalaxyTV - small excellence! - English - AAC - Stereo - Default","NalLengthSize":null,"IsInterlaced":false,"IsAVC":null,"ChannelLayout":"stereo","BitRate":128000,"BitDepth":null,"RefFrames":null,"PacketLength":null,"Channels":2,"SampleRate":48000,"IsDefault":true,"IsForced":false,"Height":null,"Width":null,"AverageFrameRate":null,"RealFrameRate":null,"Profile":"LC","Type":0,"AspectRatio":null,"Index":1,"Score":null,"IsExternal":false,"DeliveryMethod":null,"DeliveryUrl":null,"IsExternalUrl":null,"IsTextSubtitleStream":false,"SupportsExternalStream":false,"Path":null,"PixelFormat":null,"Level":0,"IsAnamorphic":null},{"Codec":"subrip","CodecTag":null,"Language":"eng","ColorRange":null,"ColorSpace":null,"ColorTransfer":null,"ColorPrimaries":null,"DvVersionMajor":null,"DvVersionMinor":null,"DvProfile":null,"DvLevel":null,"RpuPresentFlag":null,"ElPresentFlag":null,"BlPresentFlag":null,"DvBlSignalCompatibilityId":null,"Comment":null,"TimeBase":"1/1000","CodecTimeBase":null,"Title":"GalaxyTV - small excellence!","VideoRange":null,"VideoRangeType":null,"VideoDoViTitle":null,"LocalizedUndefined":"Undefined","LocalizedDefault":"Default","LocalizedForced":"Forced","LocalizedExternal":"External","DisplayTitle":"GalaxyTV - small excellence! - English - Default - SUBRIP","NalLengthSize":null,"IsInterlaced":false,"IsAVC":null,"ChannelLayout":null,"BitRate":null,"BitDepth":null,"RefFrames":null,"PacketLength":null,"Channels":null,"SampleRate":null,"IsDefault":true,"IsForced":false,"Height":null,"Width":null,"AverageFrameRate":null,"RealFrameRate":null,"Profile":null,"Type":2,"AspectRatio":null,"Index":2,"Score":null,"IsExternal":false,"DeliveryMethod":null,"DeliveryUrl":null,"IsExternalUrl":null,"IsTextSubtitleStream":true,"SupportsExternalStream":true,"Path":null,"PixelFormat":null,"Level":0,"IsAnamorphic":null}],"MediaAttachments":[],"Formats":[],"Bitrate":2168340,"Timestamp":null,"RequiredHttpHeaders":{},"TranscodingUrl":null,"TranscodingSubProtocol":null,"TranscodingContainer":null,"AnalyzeDurationMs":null,"DefaultAudioStreamIndex":null,"DefaultSubtitleStreamIndex":null}

/usr/lib/jellyfin-ffmpeg/ffmpeg -analyzeduration 200M -fflags +genpts -f matroska,webm  -i file:"/data/tvshows/Top Gear/Season 33/Top Gear - S33E02 - Episode 2 WEBRip-720p.mkv" -map_metadata -1 -map_chapters -1 -threads 0 -map 0:0 -map 0:1 -map -0:s -codec:v:0 copy -bsf:v h264_mp4toannexb -start_at_zero -codec:a:0 copy -copyts -avoid_negative_ts disabled -max_muxing_queue_size 2048 -f hls -max_delay 5000000 -hls_time 6 -hls_segment_type mpegts -start_number 0 -hls_segment_filename "/data/transcodes/87b7df927a5063f3a4449c79781f8359%d.ts" -hls_playlist_type vod -hls_list_size 0 -y "/data/transcodes/87b7df927a5063f3a4449c79781f8359.m3u8"


ffmpeg version 5.1.3-Jellyfin Copyright (c) 2000-2022 the FFmpeg developers
  built with gcc 11 (Ubuntu 11.3.0-1ubuntu1~22.04.1)
  configuration: --prefix=/usr/lib/jellyfin-ffmpeg --target-os=linux --extra-libs=-lfftw3f --extra-version=Jellyfin --disable-doc --disable-ffplay --disable-ptx-compression --disable-static --disable-libxcb --disable-sdl2 --disable-xlib --enable-lto --enable-gpl --enable-version3 --enable-shared --enable-gmp --enable-gnutls --enable-chromaprint --enable-libdrm --enable-libass --enable-libfreetype --enable-libfribidi --enable-libfontconfig --enable-libbluray --enable-libmp3lame --enable-libopus --enable-libtheora --enable-libvorbis --enable-libopenmpt --enable-libdav1d --enable-libwebp --enable-libvpx --enable-libx264 --enable-libx265 --enable-libzvbi --enable-libzimg --enable-libfdk-aac --arch=amd64 --enable-libsvtav1 --enable-libshaderc --enable-libplacebo --enable-vulkan --enable-opencl --enable-vaapi --enable-amf --enable-libmfx --enable-ffnvcodec --enable-cuda --enable-cuda-llvm --enable-cuvid --enable-nvdec --enable-nvenc
  libavutil      57. 28.100 / 57. 28.100
  libavcodec     59. 37.100 / 59. 37.100
  libavformat    59. 27.100 / 59. 27.100
  libavdevice    59.  7.100 / 59.  7.100
  libavfilter     8. 44.100 /  8. 44.100
  libswscale      6.  7.100 /  6.  7.100
  libswresample   4.  7.100 /  4.  7.100
  libpostproc    56.  6.100 / 56.  6.100
Input #0, matroska,webm, from 'file:/data/tvshows/Top Gear/Season 33/Top Gear - S33E02 - Episode 2 WEBRip-720p.mkv':
  Metadata:
    title           : Top.Gear.S33E02.720p.iP.WEBRip.x264-GalaxyTV
    COMMENT         : GalaxyTV - small excellence!
    ENCODER         : Lavf58.76.100
  Duration: 00:59:28.08, start: 0.000000, bitrate: 2040 kb/s
  Stream #0:0(eng): Video: h264 (High), yuv420p(tv, bt709, progressive), 1280x720 [SAR 1:1 DAR 16:9], 50 fps, 50 tbr, 1k tbn (default) (original)
    Metadata:
      title           : GalaxyTV - small excellence!
      BPS             : 5056248
      NUMBER_OF_FRAMES: 178402
      NUMBER_OF_BYTES : 2255112014
      _STATISTICS_WRITING_APP: mkvmerge v71.1.0 ('Fortitude') 64-bit
      _STATISTICS_WRITING_DATE_UTC: 2022-11-06 21:55:32
      _STATISTICS_TAGS: BPS DURATION NUMBER_OF_FRAMES NUMBER_OF_BYTES
      ENCODER         : Lavc58.134.100 libx264
      DURATION        : 00:59:28.083000000
  Stream #0:1(eng): Audio: aac (LC), 48000 Hz, stereo, fltp (default) (original)
    Metadata:
      title           : GalaxyTV - small excellence!
      BPS             : 128000
      NUMBER_OF_FRAMES: 167251
      NUMBER_OF_BYTES : 57088341
      _STATISTICS_WRITING_APP: mkvmerge v71.1.0 ('Fortitude') 64-bit
      _STATISTICS_WRITING_DATE_UTC: 2022-11-06 21:55:32
      _STATISTICS_TAGS: BPS DURATION NUMBER_OF_FRAMES NUMBER_OF_BYTES
      ENCODER         : Lavc58.134.100 libfdk_aac
      DURATION        : 00:59:28.064000000
  Stream #0:2(eng): Subtitle: subrip (default)
    Metadata:
      title           : GalaxyTV - small excellence!
      _STATISTICS_TAGS: BPS DURATION NUMBER_OF_FRAMES NUMBER_OF_BYTES
      BPS             : 87
      NUMBER_OF_FRAMES: 1083
      NUMBER_OF_BYTES : 38331
      _STATISTICS_WRITING_APP: mkvmerge v71.1.0 ('Fortitude') 64-bit
      _STATISTICS_WRITING_DATE_UTC: 2022-11-06 21:55:32
      ENCODER         : Lavc58.134.100 srt
      DURATION        : 00:58:57.643000000
Output #0, hls, to '/data/transcodes/87b7df927a5063f3a4449c79781f8359.m3u8':
  Metadata:
    encoder         : Lavf59.27.100
  Stream #0:0: Video: h264 (High), yuv420p(tv, bt709, progressive), 1280x720 [SAR 1:1 DAR 16:9], q=2-31, 50 fps, 50 tbr, 90k tbn (default) (original)
  Stream #0:1: Audio: aac (LC), 48000 Hz, stereo, fltp (default) (original)
Stream mapping:
  Stream #0:0 -> #0:0 (copy)
  Stream #0:1 -> #0:1 (copy)
Press [q] to stop, [?] for help
frame=    0 fps=0.0 q=-1.0 size=N/A time=00:00:00.00 bitrate=N/A speed=N/A    
[hls @ 0x559d37974c40] Opening '/data/transcodes/87b7df927a5063f3a4449c79781f83590.ts' for writing
[hls @ 0x559d37974c40] Opening '/data/transcodes/87b7df927a5063f3a4449c79781f83591.ts' for writing
[hls @ 0x559d37974c40] Opening '/data/transcodes/87b7df927a5063f3a4449c79781f83592.ts' for writing
[hls @ 0x559d37974c40] Opening '/data/transcodes/87b7df927a5063f3a4449c79781f83593.ts' for writing
[hls @ 0x559d37974c40] Opening '/data/transcodes/87b7df927a5063f3a4449c79781f83594.ts' for writing
[hls @ 0x559d37974c40] Opening '/data/transcodes/87b7df927a5063f3a4449c79781f83595.ts' for writing
[hls @ 0x559d37974c40] Opening '/data/transcodes/87b7df927a5063f3a4449c79781f83596.ts' for writing
[hls @ 0x559d37974c40] Opening '/data/transcodes/87b7df927a5063f3a4449c79781f83597.ts' for writing
[hls @ 0x559d37974c40] Opening '/data/transcodes/87b7df927a5063f3a4449c79781f83598.ts' for writing
[hls @ 0x559d37974c40] Opening '/data/transcodes/87b7df927a5063f3a4449c79781f83599.ts' for writing
[hls @ 0x559d37974c40] Opening '/data/transcodes/87b7df927a5063f3a4449c79781f835910.ts' for writing
[hls @ 0x559d37974c40] Opening '/data/transcodes/87b7df927a5063f3a4449c79781f835911.ts' for writing
[hls @ 0x559d37974c40] Opening '/data/transcodes/87b7df927a5063f3a4449c79781f835912.ts' for writing
[hls @ 0x559d37974c40] Opening '/data/transcodes/87b7df927a5063f3a4449c79781f835913.ts' for writing
[hls @ 0x559d37974c40] Opening '/data/transcodes/87b7df927a5063f3a4449c79781f835914.ts' for writing
[hls @ 0x559d37974c40] Opening '/data/transcodes/87b7df927a5063f3a4449c79781f835915.ts' for writing
[hls @ 0x559d37974c40] Opening '/data/transcodes/87b7df927a5063f3a4449c79781f835916.ts' for writing
[hls @ 0x559d37974c40] Opening '/data/transcodes/87b7df927a5063f3a4449c79781f835917.ts' for writing
[hls @ 0x559d37974c40] Opening '/data/transcodes/87b7df927a5063f3a4449c79781f835918.ts' for writing
[hls @ 0x559d37974c40] Opening '/data/transcodes/87b7df927a5063f3a4449c79781f835919.ts' for writing
[hls @ 0x559d37974c40] Opening '/data/transcodes/87b7df927a5063f3a4449c79781f835920.ts' for writing
[hls @ 0x559d37974c40] Opening '/data/transcodes/87b7df927a5063f3a4449c79781f835921.ts' for writing
[hls @ 0x559d37974c40] Opening '/data/transcodes/87b7df927a5063f3a4449c79781f835922.ts' for writing
[hls @ 0x559d37974c40] Opening '/data/transcodes/87b7df927a5063f3a4449c79781f835923.ts' for writing
[hls @ 0x559d37974c40] Opening '/data/transcodes/87b7df927a5063f3a4449c79781f835924.ts' for writing
[hls @ 0x559d37974c40] Opening '/data/transcodes/87b7df927a5063f3a4449c79781f835925.ts' for writing
[hls @ 0x559d37974c40] Opening '/data/transcodes/87b7df927a5063f3a4449c79781f835926.ts' for writing
[hls @ 0x559d37974c40] Opening '/data/transcodes/87b7df927a5063f3a4449c79781f835927.ts' for writing
[hls @ 0x559d37974c40] Opening '/data/transcodes/87b7df927a5063f3a4449c79781f835928.ts' for writing
[hls @ 0x559d37974c40] Opening '/data/transcodes/87b7df927a5063f3a4449c79781f835929.ts' for writing
[hls @ 0x559d37974c40] Opening '/data/transcodes/87b7df927a5063f3a4449c79781f835930.ts' for writing
[hls @ 0x559d37974c40] Opening '/data/transcodes/87b7df927a5063f3a4449c79781f835931.ts' for writing
[hls @ 0x559d37974c40] Opening '/data/transcodes/87b7df927a5063f3a4449c79781f835932.ts' for writing
[hls @ 0x559d37974c40] Opening '/data/transcodes/87b7df927a5063f3a4449c79781f835933.ts' for writing
[hls @ 0x559d37974c40] Opening '/data/transcodes/87b7df927a5063f3a4449c79781f835934.ts' for writing
[hls @ 0x559d37974c40] Opening '/data/transcodes/87b7df927a5063f3a4449c79781f835935.ts' for writing
[hls @ 0x559d37974c40] Opening '/data/transcodes/87b7df927a5063f3a4449c79781f835936.ts' for writing
[hls @ 0x559d37974c40] Opening '/data/transcodes/87b7df927a5063f3a4449c79781f835937.ts' for writing
[hls @ 0x559d37974c40] Opening '/data/transcodes/87b7df927a5063f3a4449c79781f835938.ts' for writing
[hls @ 0x559d37974c40] Opening '/data/transcodes/87b7df927a5063f3a4449c79781f835939.ts' for writing
[hls @ 0x559d37974c40] Opening '/data/transcodes/87b7df927a5063f3a4449c79781f835940.ts' for writing
[hls @ 0x559d37974c40] Opening '/data/transcodes/87b7df927a5063f3a4449c79781f835941.ts' for writing
[hls @ 0x559d37974c40] Opening '/data/transcodes/87b7df927a5063f3a4449c79781f835942.ts' for writing
[hls @ 0x559d37974c40] Opening '/data/transcodes/87b7df927a5063f3a4449c79781f835943.ts' for writing
[hls @ 0x559d37974c40] Opening '/data/transcodes/87b7df927a5063f3a4449c79781f835944.ts' for writing
frame=13569 fps=0.0 q=-1.0 size=N/A time=00:04:31.36 bitrate=N/A speed= 543x    
[hls @ 0x559d37974c40] Opening '/data/transcodes/87b7df927a5063f3a4449c79781f835945.ts' for writing
[hls @ 0x559d37974c40] Opening '/data/transcodes/87b7df927a5063f3a4449c79781f835946.ts' for writing
[hls @ 0x559d37974c40] Opening '/data/transcodes/87b7df927a5063f3a4449c79781f835947.ts' for writing
[hls @ 0x559d37974c40] Opening '/data/transcodes/87b7df927a5063f3a4449c79781f835948.ts' for writing
[hls @ 0x559d37974c40] Opening '/data/transcodes/87b7df927a5063f3a4449c79781f835949.ts' for writing
[hls @ 0x559d37974c40] Opening '/data/transcodes/87b7df927a5063f3a4449c79781f835950.ts' for writing
[hls @ 0x559d37974c40] Opening '/data/transcodes/87b7df927a5063f3a4449c79781f835951.ts' for writing
[hls @ 0x559d37974c40] Opening '/data/transcodes/87b7df927a5063f3a4449c79781f835952.ts' for writing
[hls @ 0x559d37974c40] Opening '/data/transcodes/87b7df927a5063f3a4449c79781f835953.ts' for writing
[hls @ 0x559d37974c40] Opening '/data/transcodes/87b7df927a5063f3a4449c79781f835954.ts' for writing
[hls @ 0x559d37974c40] Opening '/data/transcodes/87b7df927a5063f3a4449c79781f835955.ts' for writing
[hls @ 0x559d37974c40] Opening '/data/transcodes/87b7df927a5063f3a4449c79781f835956.ts' for writing
[hls @ 0x559d37974c40] Opening '/data/transcodes/87b7df927a5063f3a4449c79781f835957.ts' for writing
[hls @ 0x559d37974c40] Opening '/data/transcodes/87b7df927a5063f3a4449c79781f835958.ts' for writing
[hls @ 0x559d37974c40] Opening '/data/transcodes/87b7df927a5063f3a4449c79781f835959.ts' for writing
[hls @ 0x559d37974c40] Opening '/data/transcodes/87b7df927a5063f3a4449c79781f835960.ts' for writing
[hls @ 0x559d37974c40] Opening '/data/transcodes/87b7df927a5063f3a4449c79781f835961.ts' for writing
[hls @ 0x559d37974c40] Opening '/data/transcodes/87b7df927a5063f3a4449c79781f835962.ts' for writing
[hls @ 0x559d37974c40] Opening '/data/transcodes/87b7df927a5063f3a4449c79781f835963.ts' for writing
[hls @ 0x559d37974c40] Opening '/data/transcodes/87b7df927a5063f3a4449c79781f835964.ts' for writing
[hls @ 0x559d37974c40] Opening '/data/transcodes/87b7df927a5063f3a4449c79781f835965.ts' for writing
[hls @ 0x559d37974c40] Opening '/data/transcodes/87b7df927a5063f3a4449c79781f835966.ts' for writing
[hls @ 0x559d37974c40] Opening '/data/transcodes/87b7df927a5063f3a4449c79781f835967.ts' for writing
[hls @ 0x559d37974c40] Opening '/data/transcodes/87b7df927a5063f3a4449c79781f835968.ts' for writing
[hls @ 0x559d37974c40] Opening '/data/transcodes/87b7df927a5063f3a4449c79781f835969.ts' for writing
[hls @ 0x559d37974c40] Opening '/data/transcodes/87b7df927a5063f3a4449c79781f835970.ts' for writing
[hls @ 0x559d37974c40] Opening '/data/transcodes/87b7df927a5063f3a4449c79781f835971.ts' for writing
[hls @ 0x559d37974c40] Opening '/data/transcodes/87b7df927a5063f3a4449c79781f835972.ts' for writing
[hls @ 0x559d37974c40] Opening '/data/transcodes/87b7df927a5063f3a4449c79781f835973.ts' for writing
[hls @ 0x559d37974c40] Opening '/data/transcodes/87b7df927a5063f3a4449c79781f835974.ts' for writing
[hls @ 0x559d37974c40] Opening '/data/transcodes/87b7df927a5063f3a4449c79781f835975.ts' for writing
[hls @ 0x559d37974c40] Opening '/data/transcodes/87b7df927a5063f3a4449c79781f835976.ts' for writing
[hls @ 0x559d37974c40] Opening '/data/transcodes/87b7df927a5063f3a4449c79781f835977.ts' for writing
[hls @ 0x559d37974c40] Opening '/data/transcodes/87b7df927a5063f3a4449c79781f835978.ts' for writing
[hls @ 0x559d37974c40] Opening '/data/transcodes/87b7df927a5063f3a4449c79781f835979.ts' for writing
[hls @ 0x559d37974c40] Opening '/data/transcodes/87b7df927a5063f3a4449c79781f835980.ts' for writing
[hls @ 0x559d37974c40] Opening '/data/transcodes/87b7df927a5063f3a4449c79781f835981.ts' for writing
[hls @ 0x559d37974c40] Opening '/data/transcodes/87b7df927a5063f3a4449c79781f835982.ts' for writing
[hls @ 0x559d37974c40] Opening '/data/transcodes/87b7df927a5063f3a4449c79781f835983.ts' for writing
[hls @ 0x559d37974c40] Opening '/data/transcodes/87b7df927a5063f3a4449c79781f835984.ts' for writing
[hls @ 0x559d37974c40] Opening '/data/transcodes/87b7df927a5063f3a4449c79781f835985.ts' for writing
[hls @ 0x559d37974c40] Opening '/data/transcodes/87b7df927a5063f3a4449c79781f835986.ts' for writing
[hls @ 0x559d37974c40] Opening '/data/transcodes/87b7df927a5063f3a4449c79781f835987.ts' for writing
[hls @ 0x559d37974c40] Opening '/data/transcodes/87b7df927a5063f3a4449c79781f835988.ts' for writing
[hls @ 0x559d37974c40] Opening '/data/transcodes/87b7df927a5063f3a4449c79781f835989.ts' for writing
[hls @ 0x559d37974c40] Opening '/data/transcodes/87b7df927a5063f3a4449c79781f835990.ts' for writing
[hls @ 0x559d37974c40] Opening '/data/transcodes/87b7df927a5063f3a4449c79781f835991.ts' for writing
[hls @ 0x559d37974c40] Opening '/data/transcodes/87b7df927a5063f3a4449c79781f835992.ts' for writing
[hls @ 0x559d37974c40] Opening '/data/transcodes/87b7df927a5063f3a4449c79781f835993.ts' for writing
frame=28439 fps=0.0 q=-1.0 size=N/A time=00:09:28.76 bitrate=N/A speed= 569x    
[hls @ 0x559d37974c40] Opening '/data/transcodes/87b7df927a5063f3a4449c79781f835994.ts' for writing
[hls @ 0x559d37974c40] Opening '/data/transcodes/87b7df927a5063f3a4449c79781f835995.ts' for writing
[hls @ 0x559d37974c40] Opening '/data/transcodes/87b7df927a5063f3a4449c79781f835996.ts' for writing
[hls @ 0x559d37974c40] Opening '/data/transcodes/87b7df927a5063f3a4449c79781f835997.ts' for writing
[hls @ 0x559d37974c40] Opening '/data/transcodes/87b7df927a5063f3a4449c79781f835998.ts' for writing
[hls @ 0x559d37974c40] Opening '/data/transcodes/87b7df927a5063f3a4449c79781f835999.ts' for writing
[hls @ 0x559d37974c40] Opening '/data/transcodes/87b7df927a5063f3a4449c79781f8359100.ts' for writing
[hls @ 0x559d37974c40] Opening '/data/transcodes/87b7df927a5063f3a4449c79781f8359101.ts' for writing
[hls @ 0x559d37974c40] Opening '/data/transcodes/87b7df927a5063f3a4449c79781f8359102.ts' for writing
[hls @ 0x559d37974c40] Opening '/data/transcodes/87b7df927a5063f3a4449c79781f8359103.ts' for writing
[hls @ 0x559d37974c40] Opening '/data/transcodes/87b7df927a5063f3a4449c79781f8359104.ts' for writing
[hls @ 0x559d37974c40] Opening '/data/transcodes/87b7df927a5063f3a4449c79781f8359105.ts' for writing
[hls @ 0x559d37974c40] Opening '/data/transcodes/87b7df927a5063f3a4449c79781f8359106.ts' for writing
[hls @ 0x559d37974c40] Opening '/data/transcodes/87b7df927a5063f3a4449c79781f8359107.ts' for writing
[hls @ 0x559d37974c40] Opening '/data/transcodes/87b7df927a5063f3a4449c79781f8359108.ts' for writing
[hls @ 0x559d37974c40] Opening '/data/transcodes/87b7df927a5063f3a4449c79781f8359109.ts' for writing
[hls @ 0x559d37974c40] Opening '/data/transcodes/87b7df927a5063f3a4449c79781f8359110.ts' for writing
[hls @ 0x559d37974c40] Opening '/data/transcodes/87b7df927a5063f3a4449c79781f8359111.ts' for writing
[hls @ 0x559d37974c40] Opening '/data/transcodes/87b7df927a5063f3a4449c79781f8359112.ts' for writing
[hls @ 0x559d37974c40] Opening '/data/transcodes/87b7df927a5063f3a4449c79781f8359113.ts' for writing
[hls @ 0x559d37974c40] Opening '/data/transcodes/87b7df927a5063f3a4449c79781f8359114.ts' for writing
[hls @ 0x559d37974c40] Opening '/data/transcodes/87b7df927a5063f3a4449c79781f8359115.ts' for writing
[hls @ 0x559d37974c40] Opening '/data/transcodes/87b7df927a5063f3a4449c79781f8359116.ts' for writing
[hls @ 0x559d37974c40] Opening '/data/transcodes/87b7df927a5063f3a4449c79781f8359117.ts' for writing
[hls @ 0x559d37974c40] Opening '/data/transcodes/87b7df927a5063f3a4449c79781f8359118.ts' for writing
[hls @ 0x559d37974c40] Opening '/data/transcodes/87b7df927a5063f3a4449c79781f8359119.ts' for writing
[hls @ 0x559d37974c40] Opening '/data/transcodes/87b7df927a5063f3a4449c79781f8359120.ts' for writing
[hls @ 0x559d37974c40] Opening '/data/transcodes/87b7df927a5063f3a4449c79781f8359121.ts' for writing
[hls @ 0x559d37974c40] Opening '/data/transcodes/87b7df927a5063f3a4449c79781f8359122.ts' for writing
[hls @ 0x559d37974c40] Opening '/data/transcodes/87b7df927a5063f3a4449c79781f8359123.ts' for writing
[hls @ 0x559d37974c40] Opening '/data/transcodes/87b7df927a5063f3a4449c79781f8359124.ts' for writing
[hls @ 0x559d37974c40] Opening '/data/transcodes/87b7df927a5063f3a4449c79781f8359125.ts' for writing
[hls @ 0x559d37974c40] Opening '/data/transcodes/87b7df927a5063f3a4449c79781f8359126.ts' for writing
[hls @ 0x559d37974c40] Opening '/data/transcodes/87b7df927a5063f3a4449c79781f8359127.ts' for writing
[hls @ 0x559d37974c40] Opening '/data/transcodes/87b7df927a5063f3a4449c79781f8359128.ts' for writing
[hls @ 0x559d37974c40] Opening '/data/transcodes/87b7df927a5063f3a4449c79781f8359129.ts' for writing
[hls @ 0x559d37974c40] Opening '/data/transcodes/87b7df927a5063f3a4449c79781f8359130.ts' for writing
[hls @ 0x559d37974c40] Opening '/data/transcodes/87b7df927a5063f3a4449c79781f8359131.ts' for writing
[hls @ 0x559d37974c40] Opening '/data/transcodes/87b7df927a5063f3a4449c79781f8359132.ts' for writing
[hls @ 0x559d37974c40] Opening '/data/transcodes/87b7df927a5063f3a4449c79781f8359133.ts' for writing
[hls @ 0x559d37974c40] Opening '/data/transcodes/87b7df927a5063f3a4449c79781f8359134.ts' for writing
[hls @ 0x559d37974c40] Opening '/data/transcodes/87b7df927a5063f3a4449c79781f8359135.ts' for writing
[hls @ 0x559d37974c40] Opening '/data/transcodes/87b7df927a5063f3a4449c79781f8359136.ts' for writing
[hls @ 0x559d37974c40] Opening '/data/transcodes/87b7df927a5063f3a4449c79781f8359137.ts' for writing
[hls @ 0x559d37974c40] Opening '/data/transcodes/87b7df927a5063f3a4449c79781f8359138.ts' for writing
[hls @ 0x559d37974c40] Opening '/data/transcodes/87b7df927a5063f3a4449c79781f8359139.ts' for writing
[hls @ 0x559d37974c40] Opening '/data/transcodes/87b7df927a5063f3a4449c79781f8359140.ts' for writing
[hls @ 0x559d37974c40] Opening '/data/transcodes/87b7df927a5063f3a4449c79781f8359141.ts' for writing
[hls @ 0x559d37974c40] Opening '/data/transcodes/87b7df927a5063f3a4449c79781f8359142.ts' for writing
[hls @ 0x559d37974c40] Opening '/data/transcodes/87b7df927a5063f3a4449c79781f8359143.ts' for writing
[hls @ 0x559d37974c40] Opening '/data/transcodes/87b7df927a5063f3a4449c79781f8359144.ts' for writing
[hls @ 0x559d37974c40] Opening '/data/transcodes/87b7df927a5063f3a4449c79781f8359145.ts' for writing
[hls @ 0x559d37974c40] Opening '/data/transcodes/87b7df927a5063f3a4449c79781f8359146.ts' for writing
[hls @ 0x559d37974c40] Opening '/data/transcodes/87b7df927a5063f3a4449c79781f8359147.ts' for writing
[hls @ 0x559d37974c40] Opening '/data/transcodes/87b7df927a5063f3a4449c79781f8359148.ts' for writing
[hls @ 0x559d37974c40] Opening '/data/transcodes/87b7df927a5063f3a4449c79781f8359149.ts' for writing
[hls @ 0x559d37974c40] Opening '/data/transcodes/87b7df927a5063f3a4449c79781f8359150.ts' for writing
[hls @ 0x559d37974c40] Opening '/data/transcodes/87b7df927a5063f3a4449c79781f8359151.ts' for writing
[hls @ 0x559d37974c40] Opening '/data/transcodes/87b7df927a5063f3a4449c79781f8359152.ts' for writing
[hls @ 0x559d37974c40] Opening '/data/transcodes/87b7df927a5063f3a4449c79781f8359153.ts' for writing
[hls @ 0x559d37974c40] Opening '/data/transcodes/87b7df927a5063f3a4449c79781f8359154.ts' for writing
[hls @ 0x559d37974c40] Opening '/data/transcodes/87b7df927a5063f3a4449c79781f8359155.ts' for writing
[hls @ 0x559d37974c40] Opening '/data/transcodes/87b7df927a5063f3a4449c79781f8359156.ts' for writing
[hls @ 0x559d37974c40] Opening '/data/transcodes/87b7df927a5063f3a4449c79781f8359157.ts' for writing
[hls @ 0x559d37974c40] Opening '/data/transcodes/87b7df927a5063f3a4449c79781f8359158.ts' for writing
[hls @ 0x559d37974c40] Opening '/data/transcodes/87b7df927a5063f3a4449c79781f8359159.ts' for writing
frame=48192 fps=32128 q=-1.0 size=N/A time=00:16:03.81 bitrate=N/A speed= 643x    
[hls @ 0x559d37974c40] Opening '/data/transcodes/87b7df927a5063f3a4449c79781f8359160.ts' for writing
[hls @ 0x559d37974c40] Opening '/data/transcodes/87b7df927a5063f3a4449c79781f8359161.ts' for writing
[hls @ 0x559d37974c40] Opening '/data/transcodes/87b7df927a5063f3a4449c79781f8359162.ts' for writing
[hls @ 0x559d37974c40] Opening '/data/transcodes/87b7df927a5063f3a4449c79781f8359163.ts' for writing
[hls @ 0x559d37974c40] Opening '/data/transcodes/87b7df927a5063f3a4449c79781f8359164.ts' for writing
[hls @ 0x559d37974c40] Opening '/data/transcodes/87b7df927a5063f3a4449c79781f8359165.ts' for writing
[hls @ 0x559d37974c40] Opening '/data/transcodes/87b7df927a5063f3a4449c79781f8359166.ts' for writing
[hls @ 0x559d37974c40] Opening '/data/transcodes/87b7df927a5063f3a4449c79781f8359167.ts' for writing
[hls @ 0x559d37974c40] Opening '/data/transcodes/87b7df927a5063f3a4449c79781f8359168.ts' for writing
[hls @ 0x559d37974c40] Opening '/data/transcodes/87b7df927a5063f3a4449c79781f8359169.ts' for writing
[hls @ 0x559d37974c40] Opening '/data/transcodes/87b7df927a5063f3a4449c79781f8359170.ts' for writing
[hls @ 0x559d37974c40] Opening '/data/transcodes/87b7df927a5063f3a4449c79781f8359171.ts' for writing
[hls @ 0x559d37974c40] Opening '/data/transcodes/87b7df927a5063f3a4449c79781f8359172.ts' for writing
[hls @ 0x559d37974c40] Opening '/data/transcodes/87b7df927a5063f3a4449c79781f8359173.ts' for writing
[hls @ 0x559d37974c40] Opening '/data/transcodes/87b7df927a5063f3a4449c79781f8359174.ts' for writing
[hls @ 0x559d37974c40] Opening '/data/transcodes/87b7df927a5063f3a4449c79781f8359175.ts' for writing
[hls @ 0x559d37974c40] Opening '/data/transcodes/87b7df927a5063f3a4449c79781f8359176.ts' for writing
[hls @ 0x559d37974c40] Opening '/data/transcodes/87b7df927a5063f3a4449c79781f8359177.ts' for writing
[hls @ 0x559d37974c40] Opening '/data/transcodes/87b7df927a5063f3a4449c79781f8359178.ts' for writing
[hls @ 0x559d37974c40] Opening '/data/transcodes/87b7df927a5063f3a4449c79781f8359179.ts' for writing
[hls @ 0x559d37974c40] Opening '/data/transcodes/87b7df927a5063f3a4449c79781f8359180.ts' for writing
[hls @ 0x559d37974c40] Opening '/data/transcodes/87b7df927a5063f3a4449c79781f8359181.ts' for writing
[hls @ 0x559d37974c40] Opening '/data/transcodes/87b7df927a5063f3a4449c79781f8359182.ts' for writing
[hls @ 0x559d37974c40] Opening '/data/transcodes/87b7df927a5063f3a4449c79781f8359183.ts' for writing
[hls @ 0x559d37974c40] Opening '/data/transcodes/87b7df927a5063f3a4449c79781f8359184.ts' for writing
[hls @ 0x559d37974c40] Opening '/data/transcodes/87b7df927a5063f3a4449c79781f8359185.ts' for writing
[hls @ 0x559d37974c40] Opening '/data/transcodes/87b7df927a5063f3a4449c79781f8359186.ts' for writing
[hls @ 0x559d37974c40] Opening '/data/transcodes/87b7df927a5063f3a4449c79781f8359187.ts' for writing
[hls @ 0x559d37974c40] Opening '/data/transcodes/87b7df927a5063f3a4449c79781f8359188.ts' for writing
[hls @ 0x559d37974c40] Opening '/data/transcodes/87b7df927a5063f3a4449c79781f8359189.ts' for writing
[hls @ 0x559d37974c40] Opening '/data/transcodes/87b7df927a5063f3a4449c79781f8359190.ts' for writing
[hls @ 0x559d37974c40] Opening '/data/transcodes/87b7df927a5063f3a4449c79781f8359191.ts' for writing
[hls @ 0x559d37974c40] Opening '/data/transcodes/87b7df927a5063f3a4449c79781f8359192.ts' for writing
[hls @ 0x559d37974c40] Opening '/data/transcodes/87b7df927a5063f3a4449c79781f8359193.ts' for writing
[hls @ 0x559d37974c40] Opening '/data/transcodes/87b7df927a5063f3a4449c79781f8359194.ts' for writing
[hls @ 0x559d37974c40] Opening '/data/transcodes/87b7df927a5063f3a4449c79781f8359195.ts' for writing
[hls @ 0x559d37974c40] Opening '/data/transcodes/87b7df927a5063f3a4449c79781f8359196.ts' for writing
[hls @ 0x559d37974c40] Opening '/data/transcodes/87b7df927a5063f3a4449c79781f8359197.ts' for writing
[hls @ 0x559d37974c40] Opening '/data/transcodes/87b7df927a5063f3a4449c79781f8359198.ts' for writing
[hls @ 0x559d37974c40] Opening '/data/transcodes/87b7df927a5063f3a4449c79781f8359199.ts' for writing
[hls @ 0x559d37974c40] Opening '/data/transcodes/87b7df927a5063f3a4449c79781f8359200.ts' for writing
[hls @ 0x559d37974c40] Opening '/data/transcodes/87b7df927a5063f3a4449c79781f8359201.ts' for writing
[hls @ 0x559d37974c40] Opening '/data/transcodes/87b7df927a5063f3a4449c79781f8359202.ts' for writing
[hls @ 0x559d37974c40] Opening '/data/transcodes/87b7df927a5063f3a4449c79781f8359203.ts' for writing
[hls @ 0x559d37974c40] Opening '/data/transcodes/87b7df927a5063f3a4449c79781f8359204.ts' for writing
[hls @ 0x559d37974c40] Opening '/data/transcodes/87b7df927a5063f3a4449c79781f8359205.ts' for writing
[hls @ 0x559d37974c40] Opening '/data/transcodes/87b7df927a5063f3a4449c79781f8359206.ts' for writing
[hls @ 0x559d37974c40] Opening '/data/transcodes/87b7df927a5063f3a4449c79781f8359207.ts' for writing
[hls @ 0x559d37974c40] Opening '/data/transcodes/87b7df927a5063f3a4449c79781f8359208.ts' for writing
[hls @ 0x559d37974c40] Opening '/data/transcodes/87b7df927a5063f3a4449c79781f8359209.ts' for writing
[hls @ 0x559d37974c40] Opening '/data/transcodes/87b7df927a5063f3a4449c79781f8359210.ts' for writing
[hls @ 0x559d37974c40] Opening '/data/transcodes/87b7df927a5063f3a4449c79781f8359211.ts' for writing
[hls @ 0x559d37974c40] Opening '/data/transcodes/87b7df927a5063f3a4449c79781f8359212.ts' for writing
[hls @ 0x559d37974c40] Opening '/data/transcodes/87b7df927a5063f3a4449c79781f8359213.ts' for writing
[hls @ 0x559d37974c40] Opening '/data/transcodes/87b7df927a5063f3a4449c79781f8359214.ts' for writing
[hls @ 0x559d37974c40] Opening '/data/transcodes/87b7df927a5063f3a4449c79781f8359215.ts' for writing
[hls @ 0x559d37974c40] Opening '/data/transcodes/87b7df927a5063f3a4449c79781f8359216.ts' for writing
[hls @ 0x559d37974c40] Opening '/data/transcodes/87b7df927a5063f3a4449c79781f8359217.ts' for writing
[hls @ 0x559d37974c40] Opening '/data/transcodes/87b7df927a5063f3a4449c79781f8359218.ts' for writing
[hls @ 0x559d37974c40] Opening '/data/transcodes/87b7df927a5063f3a4449c79781f8359219.ts' for writing
[hls @ 0x559d37974c40] Opening '/data/transcodes/87b7df927a5063f3a4449c79781f8359220.ts' for writing
[hls @ 0x559d37974c40] Opening '/data/transcodes/87b7df927a5063f3a4449c79781f8359221.ts' for writing
[hls @ 0x559d37974c40] Opening '/data/transcodes/87b7df927a5063f3a4449c79781f8359222.ts' for writing
[hls @ 0x559d37974c40] Opening '/data/transcodes/87b7df927a5063f3a4449c79781f8359223.ts' for writing
frame=67230 fps=33568 q=-1.0 size=N/A time=00:22:24.57 bitrate=N/A speed= 671x    
[hls @ 0x559d37974c40] Opening '/data/transcodes/87b7df927a5063f3a4449c79781f8359224.ts' for writing
[hls @ 0x559d37974c40] Opening '/data/transcodes/87b7df927a5063f3a4449c79781f8359225.ts' for writing
[hls @ 0x559d37974c40] Opening '/data/transcodes/87b7df927a5063f3a4449c79781f8359226.ts' for writing
[hls @ 0x559d37974c40] Opening '/data/transcodes/87b7df927a5063f3a4449c79781f8359227.ts' for writing
[hls @ 0x559d37974c40] Opening '/data/transcodes/87b7df927a5063f3a4449c79781f8359228.ts' for writing
[hls @ 0x559d37974c40] Opening '/data/transcodes/87b7df927a5063f3a4449c79781f8359229.ts' for writing
[hls @ 0x559d37974c40] Opening '/data/transcodes/87b7df927a5063f3a4449c79781f8359230.ts' for writing
[hls @ 0x559d37974c40] Opening '/data/transcodes/87b7df927a5063f3a4449c79781f8359231.ts' for writing
[hls @ 0x559d37974c40] Opening '/data/transcodes/87b7df927a5063f3a4449c79781f8359232.ts' for writing
[hls @ 0x559d37974c40] Opening '/data/transcodes/87b7df927a5063f3a4449c79781f8359233.ts' for writing
[hls @ 0x559d37974c40] Opening '/data/transcodes/87b7df927a5063f3a4449c79781f8359234.ts' for writing
[hls @ 0x559d37974c40] Opening '/data/transcodes/87b7df927a5063f3a4449c79781f8359235.ts' for writing
[hls @ 0x559d37974c40] Opening '/data/transcodes/87b7df927a5063f3a4449c79781f8359236.ts' for writing
[hls @ 0x559d37974c40] Opening '/data/transcodes/87b7df927a5063f3a4449c79781f8359237.ts' for writing
[hls @ 0x559d37974c40] Opening '/data/transcodes/87b7df927a5063f3a4449c79781f8359238.ts' for writing
[hls @ 0x559d37974c40] Opening '/data/transcodes/87b7df927a5063f3a4449c79781f8359239.ts' for writing
[hls @ 0x559d37974c40] Opening '/data/transcodes/87b7df927a5063f3a4449c79781f8359240.ts' for writing
[hls @ 0x559d37974c40] Opening '/data/transcodes/87b7df927a5063f3a4449c79781f8359241.ts' for writing
[hls @ 0x559d37974c40] Opening '/data/transcodes/87b7df927a5063f3a4449c79781f8359242.ts' for writing
[hls @ 0x559d37974c40] Opening '/data/transcodes/87b7df927a5063f3a4449c79781f8359243.ts' for writing
[hls @ 0x559d37974c40] Opening '/data/transcodes/87b7df927a5063f3a4449c79781f8359244.ts' for writing
[hls @ 0x559d37974c40] Opening '/data/transcodes/87b7df927a5063f3a4449c79781f8359245.ts' for writing
[hls @ 0x559d37974c40] Opening '/data/transcodes/87b7df927a5063f3a4449c79781f8359246.ts' for writing
[hls @ 0x559d37974c40] Opening '/data/transcodes/87b7df927a5063f3a4449c79781f8359247.ts' for writing
[hls @ 0x559d37974c40] Opening '/data/transcodes/87b7df927a5063f3a4449c79781f8359248.ts' for writing
[hls @ 0x559d37974c40] Opening '/data/transcodes/87b7df927a5063f3a4449c79781f8359249.ts' for writing
[hls @ 0x559d37974c40] Opening '/data/transcodes/87b7df927a5063f3a4449c79781f8359250.ts' for writing
[hls @ 0x559d37974c40] Opening '/data/transcodes/87b7df927a5063f3a4449c79781f8359251.ts' for writing
[hls @ 0x559d37974c40] Opening '/data/transcodes/87b7df927a5063f3a4449c79781f8359252.ts' for writing
[hls @ 0x559d37974c40] Opening '/data/transcodes/87b7df927a5063f3a4449c79781f8359253.ts' for writing
[hls @ 0x559d37974c40] Opening '/data/transcodes/87b7df927a5063f3a4449c79781f8359254.ts' for writing
[hls @ 0x559d37974c40] Opening '/data/transcodes/87b7df927a5063f3a4449c79781f8359255.ts' for writing
[hls @ 0x559d37974c40] Opening '/data/transcodes/87b7df927a5063f3a4449c79781f8359256.ts' for writing
[hls @ 0x559d37974c40] Opening '/data/transcodes/87b7df927a5063f3a4449c79781f8359257.ts' for writing
[hls @ 0x559d37974c40] Opening '/data/transcodes/87b7df927a5063f3a4449c79781f8359258.ts' for writing
[hls @ 0x559d37974c40] Opening '/data/transcodes/87b7df927a5063f3a4449c79781f8359259.ts' for writing
[hls @ 0x559d37974c40] Opening '/data/transcodes/87b7df927a5063f3a4449c79781f8359260.ts' for writing
[hls @ 0x559d37974c40] Opening '/data/transcodes/87b7df927a5063f3a4449c79781f8359261.ts' for writing
[hls @ 0x559d37974c40] Opening '/data/transcodes/87b7df927a5063f3a4449c79781f8359262.ts' for writing
[hls @ 0x559d37974c40] Opening '/data/transcodes/87b7df927a5063f3a4449c79781f8359263.ts' for writing
[hls @ 0x559d37974c40] Opening '/data/transcodes/87b7df927a5063f3a4449c79781f8359264.ts' for writing
[hls @ 0x559d37974c40] Opening '/data/transcodes/87b7df927a5063f3a4449c79781f8359265.ts' for writing
[hls @ 0x559d37974c40] Opening '/data/transcodes/87b7df927a5063f3a4449c79781f8359266.ts' for writing
[hls @ 0x559d37974c40] Opening '/data/transcodes/87b7df927a5063f3a4449c79781f8359267.ts' for writing
[hls @ 0x559d37974c40] Opening '/data/transcodes/87b7df927a5063f3a4449c79781f8359268.ts' for writing
[hls @ 0x559d37974c40] Opening '/data/transcodes/87b7df927a5063f3a4449c79781f8359269.ts' for writing
[hls @ 0x559d37974c40] Opening '/data/transcodes/87b7df927a5063f3a4449c79781f8359270.ts' for writing
[hls @ 0x559d37974c40] Opening '/data/transcodes/87b7df927a5063f3a4449c79781f8359271.ts' for writing
[hls @ 0x559d37974c40] Opening '/data/transcodes/87b7df927a5063f3a4449c79781f8359272.ts' for writing
[hls @ 0x559d37974c40] Opening '/data/transcodes/87b7df927a5063f3a4449c79781f8359273.ts' for writing
frame=82350 fps=32903 q=-1.0 size=N/A time=00:27:26.99 bitrate=N/A speed= 658x    
[hls @ 0x559d37974c40] Opening '/data/transcodes/87b7df927a5063f3a4449c79781f8359274.ts' for writing
[hls @ 0x559d37974c40] Opening '/data/transcodes/87b7df927a5063f3a4449c79781f8359275.ts' for writing
[hls @ 0x559d37974c40] Opening '/data/transcodes/87b7df927a5063f3a4449c79781f8359276.ts' for writing
[hls @ 0x559d37974c40] Opening '/data/transcodes/87b7df927a5063f3a4449c79781f8359277.ts' for writing
[hls @ 0x559d37974c40] Opening '/data/transcodes/87b7df927a5063f3a4449c79781f8359278.ts' for writing
[hls @ 0x559d37974c40] Opening '/data/transcodes/87b7df927a5063f3a4449c79781f8359279.ts' for writing
[hls @ 0x559d37974c40] Opening '/data/transcodes/87b7df927a5063f3a4449c79781f8359280.ts' for writing
[hls @ 0x559d37974c40] Opening '/data/transcodes/87b7df927a5063f3a4449c79781f8359281.ts' for writing
[hls @ 0x559d37974c40] Opening '/data/transcodes/87b7df927a5063f3a4449c79781f8359282.ts' for writing
[hls @ 0x559d37974c40] Opening '/data/transcodes/87b7df927a5063f3a4449c79781f8359283.ts' for writing
[hls @ 0x559d37974c40] Opening '/data/transcodes/87b7df927a5063f3a4449c79781f8359284.ts' for writing
[hls @ 0x559d37974c40] Opening '/data/transcodes/87b7df927a5063f3a4449c79781f8359285.ts' for writing
[hls @ 0x559d37974c40] Opening '/data/transcodes/87b7df927a5063f3a4449c79781f8359286.ts' for writing
[hls @ 0x559d37974c40] Opening '/data/transcodes/87b7df927a5063f3a4449c79781f8359287.ts' for writing
[hls @ 0x559d37974c40] Opening '/data/transcodes/87b7df927a5063f3a4449c79781f8359288.ts' for writing
[hls @ 0x559d37974c40] Opening '/data/transcodes/87b7df927a5063f3a4449c79781f8359289.ts' for writing
[hls @ 0x559d37974c40] Opening '/data/transcodes/87b7df927a5063f3a4449c79781f8359290.ts' for writing
[hls @ 0x559d37974c40] Opening '/data/transcodes/87b7df927a5063f3a4449c79781f8359291.ts' for writing
[hls @ 0x559d37974c40] Opening '/data/transcodes/87b7df927a5063f3a4449c79781f8359292.ts' for writing
[hls @ 0x559d37974c40] Opening '/data/transcodes/87b7df927a5063f3a4449c79781f8359293.ts' for writing
[hls @ 0x559d37974c40] Opening '/data/transcodes/87b7df927a5063f3a4449c79781f8359294.ts' for writing
[hls @ 0x559d37974c40] Opening '/data/transcodes/87b7df927a5063f3a4449c79781f8359295.ts' for writing
[hls @ 0x559d37974c40] Opening '/data/transcodes/87b7df927a5063f3a4449c79781f8359296.ts' for writing
[hls @ 0x559d37974c40] Opening '/data/transcodes/87b7df927a5063f3a4449c79781f8359297.ts' for writing
[hls @ 0x559d37974c40] Opening '/data/transcodes/87b7df927a5063f3a4449c79781f8359298.ts' for writing
[hls @ 0x559d37974c40] Opening '/data/transcodes/87b7df927a5063f3a4449c79781f8359299.ts' for writing
[hls @ 0x559d37974c40] Opening '/data/transcodes/87b7df927a5063f3a4449c79781f8359300.ts' for writing
[hls @ 0x559d37974c40] Opening '/data/transcodes/87b7df927a5063f3a4449c79781f8359301.ts' for writing
[hls @ 0x559d37974c40] Opening '/data/transcodes/87b7df927a5063f3a4449c79781f8359302.ts' for writing
[hls @ 0x559d37974c40] Opening '/data/transcodes/87b7df927a5063f3a4449c79781f8359303.ts' for writing
[hls @ 0x559d37974c40] Opening '/data/transcodes/87b7df927a5063f3a4449c79781f8359304.ts' for writing
[hls @ 0x559d37974c40] Opening '/data/transcodes/87b7df927a5063f3a4449c79781f8359305.ts' for writing
[hls @ 0x559d37974c40] Opening '/data/transcodes/87b7df927a5063f3a4449c79781f8359306.ts' for writing
[hls @ 0x559d37974c40] Opening '/data/transcodes/87b7df927a5063f3a4449c79781f8359307.ts' for writing
[hls @ 0x559d37974c40] Opening '/data/transcodes/87b7df927a5063f3a4449c79781f8359308.ts' for writing
[hls @ 0x559d37974c40] Opening '/data/transcodes/87b7df927a5063f3a4449c79781f8359309.ts' for writing
[hls @ 0x559d37974c40] Opening '/data/transcodes/87b7df927a5063f3a4449c79781f8359310.ts' for writing
[hls @ 0x559d37974c40] Opening '/data/transcodes/87b7df927a5063f3a4449c79781f8359311.ts' for writing
[hls @ 0x559d37974c40] Opening '/data/transcodes/87b7df927a5063f3a4449c79781f8359312.ts' for writing
[hls @ 0x559d37974c40] Opening '/data/transcodes/87b7df927a5063f3a4449c79781f8359313.ts' for writing
[hls @ 0x559d37974c40] Opening '/data/transcodes/87b7df927a5063f3a4449c79781f8359314.ts' for writing
[hls @ 0x559d37974c40] Opening '/data/transcodes/87b7df927a5063f3a4449c79781f8359315.ts' for writing
[hls @ 0x559d37974c40] Opening '/data/transcodes/87b7df927a5063f3a4449c79781f8359316.ts' for writing
[hls @ 0x559d37974c40] Opening '/data/transcodes/87b7df927a5063f3a4449c79781f8359317.ts' for writing
[hls @ 0x559d37974c40] Opening '/data/transcodes/87b7df927a5063f3a4449c79781f8359318.ts' for writing
[hls @ 0x559d37974c40] Opening '/data/transcodes/87b7df927a5063f3a4449c79781f8359319.ts' for writing
[hls @ 0x559d37974c40] Opening '/data/transcodes/87b7df927a5063f3a4449c79781f8359320.ts' for writing
[hls @ 0x559d37974c40] Opening '/data/transcodes/87b7df927a5063f3a4449c79781f8359321.ts' for writing
[hls @ 0x559d37974c40] Opening '/data/transcodes/87b7df927a5063f3a4449c79781f8359322.ts' for writing
[hls @ 0x559d37974c40] Opening '/data/transcodes/87b7df927a5063f3a4449c79781f8359323.ts' for writing
[hls @ 0x559d37974c40] Opening '/data/transcodes/87b7df927a5063f3a4449c79781f8359324.ts' for writing
[hls @ 0x559d37974c40] Opening '/data/transcodes/87b7df927a5063f3a4449c79781f8359325.ts' for writing
[hls @ 0x559d37974c40] Opening '/data/transcodes/87b7df927a5063f3a4449c79781f8359326.ts' for writing
[hls @ 0x559d37974c40] Opening '/data/transcodes/87b7df927a5063f3a4449c79781f8359327.ts' for writing
[hls @ 0x559d37974c40] Opening '/data/transcodes/87b7df927a5063f3a4449c79781f8359328.ts' for writing
[hls @ 0x559d37974c40] Opening '/data/transcodes/87b7df927a5063f3a4449c79781f8359329.ts' for writing
[hls @ 0x559d37974c40] Opening '/data/transcodes/87b7df927a5063f3a4449c79781f8359330.ts' for writing
[hls @ 0x559d37974c40] Opening '/data/transcodes/87b7df927a5063f3a4449c79781f8359331.ts' for writing
frame=99622 fps=33167 q=-1.0 size=N/A time=00:33:12.40 bitrate=N/A speed= 663x    
[hls @ 0x559d37974c40] Opening '/data/transcodes/87b7df927a5063f3a4449c79781f8359332.ts' for writing
[hls @ 0x559d37974c40] Opening '/data/transcodes/87b7df927a5063f3a4449c79781f8359333.ts' for writing
[hls @ 0x559d37974c40] Opening '/data/transcodes/87b7df927a5063f3a4449c79781f8359334.ts' for writing
[hls @ 0x559d37974c40] Opening '/data/transcodes/87b7df927a5063f3a4449c79781f8359335.ts' for writing
[hls @ 0x559d37974c40] Opening '/data/transcodes/87b7df927a5063f3a4449c79781f8359336.ts' for writing
[hls @ 0x559d37974c40] Opening '/data/transcodes/87b7df927a5063f3a4449c79781f8359337.ts' for writing
[hls @ 0x559d37974c40] Opening '/data/transcodes/87b7df927a5063f3a4449c79781f8359338.ts' for writing
[hls @ 0x559d37974c40] Opening '/data/transcodes/87b7df927a5063f3a4449c79781f8359339.ts' for writing
[hls @ 0x559d37974c40] Opening '/data/transcodes/87b7df927a5063f3a4449c79781f8359340.ts' for writing
[hls @ 0x559d37974c40] Opening '/data/transcodes/87b7df927a5063f3a4449c79781f8359341.ts' for writing
[hls @ 0x559d37974c40] Opening '/data/transcodes/87b7df927a5063f3a4449c79781f8359342.ts' for writing
[hls @ 0x559d37974c40] Opening '/data/transcodes/87b7df927a5063f3a4449c79781f8359343.ts' for writing
[hls @ 0x559d37974c40] Opening '/data/transcodes/87b7df927a5063f3a4449c79781f8359344.ts' for writing
[hls @ 0x559d37974c40] Opening '/data/transcodes/87b7df927a5063f3a4449c79781f8359345.ts' for writing
[hls @ 0x559d37974c40] Opening '/data/transcodes/87b7df927a5063f3a4449c79781f8359346.ts' for writing
[hls @ 0x559d37974c40] Opening '/data/transcodes/87b7df927a5063f3a4449c79781f8359347.ts' for writing
[hls @ 0x559d37974c40] Opening '/data/transcodes/87b7df927a5063f3a4449c79781f8359348.ts' for writing
[hls @ 0x559d37974c40] Opening '/data/transcodes/87b7df927a5063f3a4449c79781f8359349.ts' for writing
[hls @ 0x559d37974c40] Opening '/data/transcodes/87b7df927a5063f3a4449c79781f8359350.ts' for writing
[hls @ 0x559d37974c40] Opening '/data/transcodes/87b7df927a5063f3a4449c79781f8359351.ts' for writing
[hls @ 0x559d37974c40] Opening '/data/transcodes/87b7df927a5063f3a4449c79781f8359352.ts' for writing
[hls @ 0x559d37974c40] Opening '/data/transcodes/87b7df927a5063f3a4449c79781f8359353.ts' for writing
[hls @ 0x559d37974c40] Opening '/data/transcodes/87b7df927a5063f3a4449c79781f8359354.ts' for writing
[hls @ 0x559d37974c40] Opening '/data/transcodes/87b7df927a5063f3a4449c79781f8359355.ts' for writing
[hls @ 0x559d37974c40] Opening '/data/transcodes/87b7df927a5063f3a4449c79781f8359356.ts' for writing
[hls @ 0x559d37974c40] Opening '/data/transcodes/87b7df927a5063f3a4449c79781f8359357.ts' for writing
[hls @ 0x559d37974c40] Opening '/data/transcodes/87b7df927a5063f3a4449c79781f8359358.ts' for writing
[hls @ 0x559d37974c40] Opening '/data/transcodes/87b7df927a5063f3a4449c79781f8359359.ts' for writing
[hls @ 0x559d37974c40] Opening '/data/transcodes/87b7df927a5063f3a4449c79781f8359360.ts' for writing
[hls @ 0x559d37974c40] Opening '/data/transcodes/87b7df927a5063f3a4449c79781f8359361.ts' for writing
[hls @ 0x559d37974c40] Opening '/data/transcodes/87b7df927a5063f3a4449c79781f8359362.ts' for writing
[hls @ 0x559d37974c40] Opening '/data/transcodes/87b7df927a5063f3a4449c79781f8359363.ts' for writing
[hls @ 0x559d37974c40] Opening '/data/transcodes/87b7df927a5063f3a4449c79781f8359364.ts' for writing
[hls @ 0x559d37974c40] Opening '/data/transcodes/87b7df927a5063f3a4449c79781f8359365.ts' for writing
[hls @ 0x559d37974c40] Opening '/data/transcodes/87b7df927a5063f3a4449c79781f8359366.ts' for writing
[hls @ 0x559d37974c40] Opening '/data/transcodes/87b7df927a5063f3a4449c79781f8359367.ts' for writing
[hls @ 0x559d37974c40] Opening '/data/transcodes/87b7df927a5063f3a4449c79781f8359368.ts' for writing
[hls @ 0x559d37974c40] Opening '/data/transcodes/87b7df927a5063f3a4449c79781f8359369.ts' for writing
[hls @ 0x559d37974c40] Opening '/data/transcodes/87b7df927a5063f3a4449c79781f8359370.ts' for writing
[hls @ 0x559d37974c40] Opening '/data/transcodes/87b7df927a5063f3a4449c79781f8359371.ts' for writing
[hls @ 0x559d37974c40] Opening '/data/transcodes/87b7df927a5063f3a4449c79781f8359372.ts' for writing
[hls @ 0x559d37974c40] Opening '/data/transcodes/87b7df927a5063f3a4449c79781f8359373.ts' for writing
[hls @ 0x559d37974c40] Opening '/data/transcodes/87b7df927a5063f3a4449c79781f8359374.ts' for writing
[hls @ 0x559d37974c40] Opening '/data/transcodes/87b7df927a5063f3a4449c79781f8359375.ts' for writing
[hls @ 0x559d37974c40] Opening '/data/transcodes/87b7df927a5063f3a4449c79781f8359376.ts' for writing
[hls @ 0x559d37974c40] Opening '/data/transcodes/87b7df927a5063f3a4449c79781f8359377.ts' for writing
[hls @ 0x559d37974c40] Opening '/data/transcodes/87b7df927a5063f3a4449c79781f8359378.ts' for writing
[hls @ 0x559d37974c40] Opening '/data/transcodes/87b7df927a5063f3a4449c79781f8359379.ts' for writing
[hls @ 0x559d37974c40] Opening '/data/transcodes/87b7df927a5063f3a4449c79781f8359380.ts' for writing
[hls @ 0x559d37974c40] Opening '/data/transcodes/87b7df927a5063f3a4449c79781f8359381.ts' for writing
[hls @ 0x559d37974c40] Opening '/data/transcodes/87b7df927a5063f3a4449c79781f8359382.ts' for writing
[hls @ 0x559d37974c40] Opening '/data/transcodes/87b7df927a5063f3a4449c79781f8359383.ts' for writing
[hls @ 0x559d37974c40] Opening '/data/transcodes/87b7df927a5063f3a4449c79781f8359384.ts' for writing
[hls @ 0x559d37974c40] Opening '/data/transcodes/87b7df927a5063f3a4449c79781f8359385.ts' for writing
[hls @ 0x559d37974c40] Opening '/data/transcodes/87b7df927a5063f3a4449c79781f8359386.ts' for writing
[hls @ 0x559d37974c40] Opening '/data/transcodes/87b7df927a5063f3a4449c79781f8359387.ts' for writing
[hls @ 0x559d37974c40] Opening '/data/transcodes/87b7df927a5063f3a4449c79781f8359388.ts' for writing
[hls @ 0x559d37974c40] Opening '/data/transcodes/87b7df927a5063f3a4449c79781f8359389.ts' for writing
[hls @ 0x559d37974c40] Opening '/data/transcodes/87b7df927a5063f3a4449c79781f8359390.ts' for writing
[hls @ 0x559d37974c40] Opening '/data/transcodes/87b7df927a5063f3a4449c79781f8359391.ts' for writing
[hls @ 0x559d37974c40] Opening '/data/transcodes/87b7df927a5063f3a4449c79781f8359392.ts' for writing
[hls @ 0x559d37974c40] Opening '/data/transcodes/87b7df927a5063f3a4449c79781f8359393.ts' for writing
[hls @ 0x559d37974c40] Opening '/data/transcodes/87b7df927a5063f3a4449c79781f8359394.ts' for writing
[hls @ 0x559d37974c40] Opening '/data/transcodes/87b7df927a5063f3a4449c79781f8359395.ts' for writing
[hls @ 0x559d37974c40] Opening '/data/transcodes/87b7df927a5063f3a4449c79781f8359396.ts' for writing
[hls @ 0x559d37974c40] Opening '/data/transcodes/87b7df927a5063f3a4449c79781f8359397.ts' for writing
[hls @ 0x559d37974c40] Opening '/data/transcodes/87b7df927a5063f3a4449c79781f8359398.ts' for writing
[hls @ 0x559d37974c40] Opening '/data/transcodes/87b7df927a5063f3a4449c79781f8359399.ts' for writing
[hls @ 0x559d37974c40] Opening '/data/transcodes/87b7df927a5063f3a4449c79781f8359400.ts' for writing
[hls @ 0x559d37974c40] Opening '/data/transcodes/87b7df927a5063f3a4449c79781f8359401.ts' for writing
[hls @ 0x559d37974c40] Opening '/data/transcodes/87b7df927a5063f3a4449c79781f8359402.ts' for writing
[hls @ 0x559d37974c40] Opening '/data/transcodes/87b7df927a5063f3a4449c79781f8359403.ts' for writing
frame=121266 fps=34604 q=-1.0 size=N/A time=00:40:25.30 bitrate=N/A speed= 692x    
[hls @ 0x559d37974c40] Opening '/data/transcodes/87b7df927a5063f3a4449c79781f8359404.ts' for writing
[hls @ 0x559d37974c40] Opening '/data/transcodes/87b7df927a5063f3a4449c79781f8359405.ts' for writing
[hls @ 0x559d37974c40] Opening '/data/transcodes/87b7df927a5063f3a4449c79781f8359406.ts' for writing
[hls @ 0x559d37974c40] Opening '/data/transcodes/87b7df927a5063f3a4449c79781f8359407.ts' for writing
[hls @ 0x559d37974c40] Opening '/data/transcodes/87b7df927a5063f3a4449c79781f8359408.ts' for writing
[hls @ 0x559d37974c40] Opening '/data/transcodes/87b7df927a5063f3a4449c79781f8359409.ts' for writing
[hls @ 0x559d37974c40] Opening '/data/transcodes/87b7df927a5063f3a4449c79781f8359410.ts' for writing
[hls @ 0x559d37974c40] Opening '/data/transcodes/87b7df927a5063f3a4449c79781f8359411.ts' for writing
[hls @ 0x559d37974c40] Opening '/data/transcodes/87b7df927a5063f3a4449c79781f8359412.ts' for writing
[hls @ 0x559d37974c40] Opening '/data/transcodes/87b7df927a5063f3a4449c79781f8359413.ts' for writing
[hls @ 0x559d37974c40] Opening '/data/transcodes/87b7df927a5063f3a4449c79781f8359414.ts' for writing
[hls @ 0x559d37974c40] Opening '/data/transcodes/87b7df927a5063f3a4449c79781f8359415.ts' for writing
[hls @ 0x559d37974c40] Opening '/data/transcodes/87b7df927a5063f3a4449c79781f8359416.ts' for writing
[hls @ 0x559d37974c40] Opening '/data/transcodes/87b7df927a5063f3a4449c79781f8359417.ts' for writing
[hls @ 0x559d37974c40] Opening '/data/transcodes/87b7df927a5063f3a4449c79781f8359418.ts' for writing
[hls @ 0x559d37974c40] Opening '/data/transcodes/87b7df927a5063f3a4449c79781f8359419.ts' for writing
[hls @ 0x559d37974c40] Opening '/data/transcodes/87b7df927a5063f3a4449c79781f8359420.ts' for writing
[hls @ 0x559d37974c40] Opening '/data/transcodes/87b7df927a5063f3a4449c79781f8359421.ts' for writing
[hls @ 0x559d37974c40] Opening '/data/transcodes/87b7df927a5063f3a4449c79781f8359422.ts' for writing
[hls @ 0x559d37974c40] Opening '/data/transcodes/87b7df927a5063f3a4449c79781f8359423.ts' for writing
[hls @ 0x559d37974c40] Opening '/data/transcodes/87b7df927a5063f3a4449c79781f8359424.ts' for writing
[hls @ 0x559d37974c40] Opening '/data/transcodes/87b7df927a5063f3a4449c79781f8359425.ts' for writing
[hls @ 0x559d37974c40] Opening '/data/transcodes/87b7df927a5063f3a4449c79781f8359426.ts' for writing
[hls @ 0x559d37974c40] Opening '/data/transcodes/87b7df927a5063f3a4449c79781f8359427.ts' for writing
[hls @ 0x559d37974c40] Opening '/data/transcodes/87b7df927a5063f3a4449c79781f8359428.ts' for writing
[hls @ 0x559d37974c40] Opening '/data/transcodes/87b7df927a5063f3a4449c79781f8359429.ts' for writing
[hls @ 0x559d37974c40] Opening '/data/transcodes/87b7df927a5063f3a4449c79781f8359430.ts' for writing
[hls @ 0x559d37974c40] Opening '/data/transcodes/87b7df927a5063f3a4449c79781f8359431.ts' for writing
[hls @ 0x559d37974c40] Opening '/data/transcodes/87b7df927a5063f3a4449c79781f8359432.ts' for writing
[hls @ 0x559d37974c40] Opening '/data/transcodes/87b7df927a5063f3a4449c79781f8359433.ts' for writing
[hls @ 0x559d37974c40] Opening '/data/transcodes/87b7df927a5063f3a4449c79781f8359434.ts' for writing
[hls @ 0x559d37974c40] Opening '/data/transcodes/87b7df927a5063f3a4449c79781f8359435.ts' for writing
[hls @ 0x559d37974c40] Opening '/data/transcodes/87b7df927a5063f3a4449c79781f8359436.ts' for writing
[hls @ 0x559d37974c40] Opening '/data/transcodes/87b7df927a5063f3a4449c79781f8359437.ts' for writing
[hls @ 0x559d37974c40] Opening '/data/transcodes/87b7df927a5063f3a4449c79781f8359438.ts' for writing
[hls @ 0x559d37974c40] Opening '/data/transcodes/87b7df927a5063f3a4449c79781f8359439.ts' for writing
[hls @ 0x559d37974c40] Opening '/data/transcodes/87b7df927a5063f3a4449c79781f8359440.ts' for writing
[hls @ 0x559d37974c40] Opening '/data/transcodes/87b7df927a5063f3a4449c79781f8359441.ts' for writing
[hls @ 0x559d37974c40] Opening '/data/transcodes/87b7df927a5063f3a4449c79781f8359442.ts' for writing
[hls @ 0x559d37974c40] Opening '/data/transcodes/87b7df927a5063f3a4449c79781f8359443.ts' for writing
[hls @ 0x559d37974c40] Opening '/data/transcodes/87b7df927a5063f3a4449c79781f8359444.ts' for writing
[hls @ 0x559d37974c40] Opening '/data/transcodes/87b7df927a5063f3a4449c79781f8359445.ts' for writing
[hls @ 0x559d37974c40] Opening '/data/transcodes/87b7df927a5063f3a4449c79781f8359446.ts' for writing
[hls @ 0x559d37974c40] Opening '/data/transcodes/87b7df927a5063f3a4449c79781f8359447.ts' for writing
[hls @ 0x559d37974c40] Opening '/data/transcodes/87b7df927a5063f3a4449c79781f8359448.ts' for writing
[hls @ 0x559d37974c40] Opening '/data/transcodes/87b7df927a5063f3a4449c79781f8359449.ts' for writing
[hls @ 0x559d37974c40] Opening '/data/transcodes/87b7df927a5063f3a4449c79781f8359450.ts' for writing
[hls @ 0x559d37974c40] Opening '/data/transcodes/87b7df927a5063f3a4449c79781f8359451.ts' for writing
[hls @ 0x559d37974c40] Opening '/data/transcodes/87b7df927a5063f3a4449c79781f8359452.ts' for writing
[hls @ 0x559d37974c40] Opening '/data/transcodes/87b7df927a5063f3a4449c79781f8359453.ts' for writing
[hls @ 0x559d37974c40] Opening '/data/transcodes/87b7df927a5063f3a4449c79781f8359454.ts' for writing
[hls @ 0x559d37974c40] Opening '/data/transcodes/87b7df927a5063f3a4449c79781f8359455.ts' for writing
[hls @ 0x559d37974c40] Opening '/data/transcodes/87b7df927a5063f3a4449c79781f8359456.ts' for writing
[hls @ 0x559d37974c40] Opening '/data/transcodes/87b7df927a5063f3a4449c79781f8359457.ts' for writing
[hls @ 0x559d37974c40] Opening '/data/transcodes/87b7df927a5063f3a4449c79781f8359458.ts' for writing
[hls @ 0x559d37974c40] Opening '/data/transcodes/87b7df927a5063f3a4449c79781f8359459.ts' for writing
[hls @ 0x559d37974c40] Opening '/data/transcodes/87b7df927a5063f3a4449c79781f8359460.ts' for writing
[hls @ 0x559d37974c40] Opening '/data/transcodes/87b7df927a5063f3a4449c79781f8359461.ts' for writing
[hls @ 0x559d37974c40] Opening '/data/transcodes/87b7df927a5063f3a4449c79781f8359462.ts' for writing
[hls @ 0x559d37974c40] Opening '/data/transcodes/87b7df927a5063f3a4449c79781f8359463.ts' for writing
[hls @ 0x559d37974c40] Opening '/data/transcodes/87b7df927a5063f3a4449c79781f8359464.ts' for writing
[hls @ 0x559d37974c40] Opening '/data/transcodes/87b7df927a5063f3a4449c79781f8359465.ts' for writing
frame=140263 fps=35027 q=-1.0 size=N/A time=00:46:45.22 bitrate=N/A speed= 701x    
[hls @ 0x559d37974c40] Opening '/data/transcodes/87b7df927a5063f3a4449c79781f8359466.ts' for writing
[hls @ 0x559d37974c40] Opening '/data/transcodes/87b7df927a5063f3a4449c79781f8359467.ts' for writing
[hls @ 0x559d37974c40] Opening '/data/transcodes/87b7df927a5063f3a4449c79781f8359468.ts' for writing
[hls @ 0x559d37974c40] Opening '/data/transcodes/87b7df927a5063f3a4449c79781f8359469.ts' for writing
[hls @ 0x559d37974c40] Opening '/data/transcodes/87b7df927a5063f3a4449c79781f8359470.ts' for writing
[hls @ 0x559d37974c40] Opening '/data/transcodes/87b7df927a5063f3a4449c79781f8359471.ts' for writing
[hls @ 0x559d37974c40] Opening '/data/transcodes/87b7df927a5063f3a4449c79781f8359472.ts' for writing
[hls @ 0x559d37974c40] Opening '/data/transcodes/87b7df927a5063f3a4449c79781f8359473.ts' for writing
[hls @ 0x559d37974c40] Opening '/data/transcodes/87b7df927a5063f3a4449c79781f8359474.ts' for writing
[hls @ 0x559d37974c40] Opening '/data/transcodes/87b7df927a5063f3a4449c79781f8359475.ts' for writing
[hls @ 0x559d37974c40] Opening '/data/transcodes/87b7df927a5063f3a4449c79781f8359476.ts' for writing
[hls @ 0x559d37974c40] Opening '/data/transcodes/87b7df927a5063f3a4449c79781f8359477.ts' for writing
[hls @ 0x559d37974c40] Opening '/data/transcodes/87b7df927a5063f3a4449c79781f8359478.ts' for writing
[hls @ 0x559d37974c40] Opening '/data/transcodes/87b7df927a5063f3a4449c79781f8359479.ts' for writing
[hls @ 0x559d37974c40] Opening '/data/transcodes/87b7df927a5063f3a4449c79781f8359480.ts' for writing
[hls @ 0x559d37974c40] Opening '/data/transcodes/87b7df927a5063f3a4449c79781f8359481.ts' for writing
[hls @ 0x559d37974c40] Opening '/data/transcodes/87b7df927a5063f3a4449c79781f8359482.ts' for writing
[hls @ 0x559d37974c40] Opening '/data/transcodes/87b7df927a5063f3a4449c79781f8359483.ts' for writing
[hls @ 0x559d37974c40] Opening '/data/transcodes/87b7df927a5063f3a4449c79781f8359484.ts' for writing
[hls @ 0x559d37974c40] Opening '/data/transcodes/87b7df927a5063f3a4449c79781f8359485.ts' for writing
[hls @ 0x559d37974c40] Opening '/data/transcodes/87b7df927a5063f3a4449c79781f8359486.ts' for writing
[hls @ 0x559d37974c40] Opening '/data/transcodes/87b7df927a5063f3a4449c79781f8359487.ts' for writing
[hls @ 0x559d37974c40] Opening '/data/transcodes/87b7df927a5063f3a4449c79781f8359488.ts' for writing
[hls @ 0x559d37974c40] Opening '/data/transcodes/87b7df927a5063f3a4449c79781f8359489.ts' for writing
[hls @ 0x559d37974c40] Opening '/data/transcodes/87b7df927a5063f3a4449c79781f8359490.ts' for writing
[hls @ 0x559d37974c40] Opening '/data/transcodes/87b7df927a5063f3a4449c79781f8359491.ts' for writing
[hls @ 0x559d37974c40] Opening '/data/transcodes/87b7df927a5063f3a4449c79781f8359492.ts' for writing
[hls @ 0x559d37974c40] Opening '/data/transcodes/87b7df927a5063f3a4449c79781f8359493.ts' for writing
[hls @ 0x559d37974c40] Opening '/data/transcodes/87b7df927a5063f3a4449c79781f8359494.ts' for writing
[hls @ 0x559d37974c40] Opening '/data/transcodes/87b7df927a5063f3a4449c79781f8359495.ts' for writing
[hls @ 0x559d37974c40] Opening '/data/transcodes/87b7df927a5063f3a4449c79781f8359496.ts' for writing
[hls @ 0x559d37974c40] Opening '/data/transcodes/87b7df927a5063f3a4449c79781f8359497.ts' for writing
[hls @ 0x559d37974c40] Opening '/data/transcodes/87b7df927a5063f3a4449c79781f8359498.ts' for writing
[hls @ 0x559d37974c40] Opening '/data/transcodes/87b7df927a5063f3a4449c79781f8359499.ts' for writing
[hls @ 0x559d37974c40] Opening '/data/transcodes/87b7df927a5063f3a4449c79781f8359500.ts' for writing
[hls @ 0x559d37974c40] Opening '/data/transcodes/87b7df927a5063f3a4449c79781f8359501.ts' for writing
[hls @ 0x559d37974c40] Opening '/data/transcodes/87b7df927a5063f3a4449c79781f8359502.ts' for writing
[hls @ 0x559d37974c40] Opening '/data/transcodes/87b7df927a5063f3a4449c79781f8359503.ts' for writing
[hls @ 0x559d37974c40] Opening '/data/transcodes/87b7df927a5063f3a4449c79781f8359504.ts' for writing
[hls @ 0x559d37974c40] Opening '/data/transcodes/87b7df927a5063f3a4449c79781f8359505.ts' for writing
[hls @ 0x559d37974c40] Opening '/data/transcodes/87b7df927a5063f3a4449c79781f8359506.ts' for writing
[hls @ 0x559d37974c40] Opening '/data/transcodes/87b7df927a5063f3a4449c79781f8359507.ts' for writing
[hls @ 0x559d37974c40] Opening '/data/transcodes/87b7df927a5063f3a4449c79781f8359508.ts' for writing
[hls @ 0x559d37974c40] Opening '/data/transcodes/87b7df927a5063f3a4449c79781f8359509.ts' for writing
[hls @ 0x559d37974c40] Opening '/data/transcodes/87b7df927a5063f3a4449c79781f8359510.ts' for writing
[hls @ 0x559d37974c40] Opening '/data/transcodes/87b7df927a5063f3a4449c79781f8359511.ts' for writing
[hls @ 0x559d37974c40] Opening '/data/transcodes/87b7df927a5063f3a4449c79781f8359512.ts' for writing
[hls @ 0x559d37974c40] Opening '/data/transcodes/87b7df927a5063f3a4449c79781f8359513.ts' for writing
[hls @ 0x559d37974c40] Opening '/data/transcodes/87b7df927a5063f3a4449c79781f8359514.ts' for writing
[hls @ 0x559d37974c40] Opening '/data/transcodes/87b7df927a5063f3a4449c79781f8359515.ts' for writing
[hls @ 0x559d37974c40] Opening '/data/transcodes/87b7df927a5063f3a4449c79781f8359516.ts' for writing
[hls @ 0x559d37974c40] Opening '/data/transcodes/87b7df927a5063f3a4449c79781f8359517.ts' for writing
[hls @ 0x559d37974c40] Opening '/data/transcodes/87b7df927a5063f3a4449c79781f8359518.ts' for writing
[hls @ 0x559d37974c40] Opening '/data/transcodes/87b7df927a5063f3a4449c79781f8359519.ts' for writing
[hls @ 0x559d37974c40] Opening '/data/transcodes/87b7df927a5063f3a4449c79781f8359520.ts' for writing
[hls @ 0x559d37974c40] Opening '/data/transcodes/87b7df927a5063f3a4449c79781f8359521.ts' for writing
[hls @ 0x559d37974c40] Opening '/data/transcodes/87b7df927a5063f3a4449c79781f8359522.ts' for writing
[hls @ 0x559d37974c40] Opening '/data/transcodes/87b7df927a5063f3a4449c79781f8359523.ts' for writing
[hls @ 0x559d37974c40] Opening '/data/transcodes/87b7df927a5063f3a4449c79781f8359524.ts' for writing
[hls @ 0x559d37974c40] Opening '/data/transcodes/87b7df927a5063f3a4449c79781f8359525.ts' for writing
[hls @ 0x559d37974c40] Opening '/data/transcodes/87b7df927a5063f3a4449c79781f8359526.ts' for writing
[hls @ 0x559d37974c40] Opening '/data/transcodes/87b7df927a5063f3a4449c79781f8359527.ts' for writing
[hls @ 0x559d37974c40] Opening '/data/transcodes/87b7df927a5063f3a4449c79781f8359528.ts' for writing
[hls @ 0x559d37974c40] Opening '/data/transcodes/87b7df927a5063f3a4449c79781f8359529.ts' for writing
[hls @ 0x559d37974c40] Opening '/data/transcodes/87b7df927a5063f3a4449c79781f8359530.ts' for writing
frame=159320 fps=35361 q=-1.0 size=N/A time=00:53:06.36 bitrate=N/A speed= 707x    
[hls @ 0x559d37974c40] Opening '/data/transcodes/87b7df927a5063f3a4449c79781f8359531.ts' for writing
[hls @ 0x559d37974c40] Opening '/data/transcodes/87b7df927a5063f3a4449c79781f8359532.ts' for writing
[hls @ 0x559d37974c40] Opening '/data/transcodes/87b7df927a5063f3a4449c79781f8359533.ts' for writing
[hls @ 0x559d37974c40] Opening '/data/transcodes/87b7df927a5063f3a4449c79781f8359534.ts' for writing
[hls @ 0x559d37974c40] Opening '/data/transcodes/87b7df927a5063f3a4449c79781f8359535.ts' for writing
[hls @ 0x559d37974c40] Opening '/data/transcodes/87b7df927a5063f3a4449c79781f8359536.ts' for writing
[hls @ 0x559d37974c40] Opening '/data/transcodes/87b7df927a5063f3a4449c79781f8359537.ts' for writing
[hls @ 0x559d37974c40] Opening '/data/transcodes/87b7df927a5063f3a4449c79781f8359538.ts' for writing
[hls @ 0x559d37974c40] Opening '/data/transcodes/87b7df927a5063f3a4449c79781f8359539.ts' for writing
[hls @ 0x559d37974c40] Opening '/data/transcodes/87b7df927a5063f3a4449c79781f8359540.ts' for writing
[hls @ 0x559d37974c40] Opening '/data/transcodes/87b7df927a5063f3a4449c79781f8359541.ts' for writing
[hls @ 0x559d37974c40] Opening '/data/transcodes/87b7df927a5063f3a4449c79781f8359542.ts' for writing
[hls @ 0x559d37974c40] Opening '/data/transcodes/87b7df927a5063f3a4449c79781f8359543.ts' for writing
[hls @ 0x559d37974c40] Opening '/data/transcodes/87b7df927a5063f3a4449c79781f8359544.ts' for writing
[hls @ 0x559d37974c40] Opening '/data/transcodes/87b7df927a5063f3a4449c79781f8359545.ts' for writing
[hls @ 0x559d37974c40] Opening '/data/transcodes/87b7df927a5063f3a4449c79781f8359546.ts' for writing
[hls @ 0x559d37974c40] Opening '/data/transcodes/87b7df927a5063f3a4449c79781f8359547.ts' for writing
[hls @ 0x559d37974c40] Opening '/data/transcodes/87b7df927a5063f3a4449c79781f8359548.ts' for writing
[hls @ 0x559d37974c40] Opening '/data/transcodes/87b7df927a5063f3a4449c79781f8359549.ts' for writing
[hls @ 0x559d37974c40] Opening '/data/transcodes/87b7df927a5063f3a4449c79781f8359550.ts' for writing
[hls @ 0x559d37974c40] Opening '/data/transcodes/87b7df927a5063f3a4449c79781f8359551.ts' for writing
[hls @ 0x559d37974c40] Opening '/data/transcodes/87b7df927a5063f3a4449c79781f8359552.ts' for writing
[hls @ 0x559d37974c40] Opening '/data/transcodes/87b7df927a5063f3a4449c79781f8359553.ts' for writing
[hls @ 0x559d37974c40] Opening '/data/transcodes/87b7df927a5063f3a4449c79781f8359554.ts' for writing
[hls @ 0x559d37974c40] Opening '/data/transcodes/87b7df927a5063f3a4449c79781f8359555.ts' for writing
[hls @ 0x559d37974c40] Opening '/data/transcodes/87b7df927a5063f3a4449c79781f8359556.ts' for writing
[hls @ 0x559d37974c40] Opening '/data/transcodes/87b7df927a5063f3a4449c79781f8359557.ts' for writing
[hls @ 0x559d37974c40] Opening '/data/transcodes/87b7df927a5063f3a4449c79781f8359558.ts' for writing
[hls @ 0x559d37974c40] Opening '/data/transcodes/87b7df927a5063f3a4449c79781f8359559.ts' for writing
[hls @ 0x559d37974c40] Opening '/data/transcodes/87b7df927a5063f3a4449c79781f8359560.ts' for writing
[hls @ 0x559d37974c40] Opening '/data/transcodes/87b7df927a5063f3a4449c79781f8359561.ts' for writing
[hls @ 0x559d37974c40] Opening '/data/transcodes/87b7df927a5063f3a4449c79781f8359562.ts' for writing
[hls @ 0x559d37974c40] Opening '/data/transcodes/87b7df927a5063f3a4449c79781f8359563.ts' for writing
[hls @ 0x559d37974c40] Opening '/data/transcodes/87b7df927a5063f3a4449c79781f8359564.ts' for writing
[hls @ 0x559d37974c40] Opening '/data/transcodes/87b7df927a5063f3a4449c79781f8359565.ts' for writing
[hls @ 0x559d37974c40] Opening '/data/transcodes/87b7df927a5063f3a4449c79781f8359566.ts' for writing
[hls @ 0x559d37974c40] Opening '/data/transcodes/87b7df927a5063f3a4449c79781f8359567.ts' for writing
[hls @ 0x559d37974c40] Opening '/data/transcodes/87b7df927a5063f3a4449c79781f8359568.ts' for writing
[hls @ 0x559d37974c40] Opening '/data/transcodes/87b7df927a5063f3a4449c79781f8359569.ts' for writing
[hls @ 0x559d37974c40] Opening '/data/transcodes/87b7df927a5063f3a4449c79781f8359570.ts' for writing
[hls @ 0x559d37974c40] Opening '/data/transcodes/87b7df927a5063f3a4449c79781f8359571.ts' for writing
[hls @ 0x559d37974c40] Opening '/data/transcodes/87b7df927a5063f3a4449c79781f8359572.ts' for writing
[hls @ 0x559d37974c40] Opening '/data/transcodes/87b7df927a5063f3a4449c79781f8359573.ts' for writing
[hls @ 0x559d37974c40] Opening '/data/transcodes/87b7df927a5063f3a4449c79781f8359574.ts' for writing
[hls @ 0x559d37974c40] Opening '/data/transcodes/87b7df927a5063f3a4449c79781f8359575.ts' for writing
[hls @ 0x559d37974c40] Opening '/data/transcodes/87b7df927a5063f3a4449c79781f8359576.ts' for writing
[hls @ 0x559d37974c40] Opening '/data/transcodes/87b7df927a5063f3a4449c79781f8359577.ts' for writing
[hls @ 0x559d37974c40] Opening '/data/transcodes/87b7df927a5063f3a4449c79781f8359578.ts' for writing
[hls @ 0x559d37974c40] Opening '/data/transcodes/87b7df927a5063f3a4449c79781f8359579.ts' for writing
[hls @ 0x559d37974c40] Opening '/data/transcodes/87b7df927a5063f3a4449c79781f8359580.ts' for writing
[hls @ 0x559d37974c40] Opening '/data/transcodes/87b7df927a5063f3a4449c79781f8359581.ts' for writing
[hls @ 0x559d37974c40] Opening '/data/transcodes/87b7df927a5063f3a4449c79781f8359582.ts' for writing
[hls @ 0x559d37974c40] Opening '/data/transcodes/87b7df927a5063f3a4449c79781f8359583.ts' for writing
[hls @ 0x559d37974c40] Opening '/data/transcodes/87b7df927a5063f3a4449c79781f8359584.ts' for writing
[hls @ 0x559d37974c40] Opening '/data/transcodes/87b7df927a5063f3a4449c79781f8359585.ts' for writing
[hls @ 0x559d37974c40] Opening '/data/transcodes/87b7df927a5063f3a4449c79781f8359586.ts' for writing
[hls @ 0x559d37974c40] Opening '/data/transcodes/87b7df927a5063f3a4449c79781f8359587.ts' for writing
[hls @ 0x559d37974c40] Opening '/data/transcodes/87b7df927a5063f3a4449c79781f8359588.ts' for writing
[hls @ 0x559d37974c40] Opening '/data/transcodes/87b7df927a5063f3a4449c79781f8359589.ts' for writing
[hls @ 0x559d37974c40] Opening '/data/transcodes/87b7df927a5063f3a4449c79781f8359590.ts' for writing
[hls @ 0x559d37974c40] Opening '/data/transcodes/87b7df927a5063f3a4449c79781f8359591.ts' for writing
[hls @ 0x559d37974c40] Opening '/data/transcodes/87b7df927a5063f3a4449c79781f8359592.ts' for writing
[hls @ 0x559d37974c40] Opening '/data/transcodes/87b7df927a5063f3a4449c79781f8359593.ts' for writing
[hls @ 0x559d37974c40] Opening '/data/transcodes/87b7df927a5063f3a4449c79781f8359594.ts' for writing
frame=178402 fps=35948 q=-1.0 Lsize=N/A time=00:59:28.04 bitrate=N/A speed= 719x    
video:844423kB audio:41813kB subtitle:0kB other streams:0kB global headers:0kB muxing overhead: unknown